<?xml version="1.0" encoding="UTF-8" standalone="no"?>
<!DOCTYPE svg PUBLIC "-//W3C//DTD SVG 1.1//EN"
 "http://www.w3.org/Graphics/SVG/1.1/DTD/svg11.dtd">
<!-- Generated by graphviz version 2.43.0 (0)
 -->
<!-- Title: G Pages: 1 -->
<svg width="1852pt" height="188pt"
 viewBox="0.00 0.00 1852.39 188.00" xmlns="http://www.w3.org/2000/svg" xmlns:xlink="http://www.w3.org/1999/xlink">
<g id="graph0" class="graph" transform="scale(1 1) rotate(0) translate(4 184)">
<title>G</title>
<polygon fill="white" stroke="transparent" points="-4,4 -4,-184 1848.39,-184 1848.39,4 -4,4"/>
<!-- builder -->
<g id="node1" class="node">
<title>builder</title>
<ellipse fill="none" stroke="black" cx="131.05" cy="-90" rx="44.39" ry="18"/>
<text text-anchor="middle" x="131.05" y="-86.3" font-family="Times,serif" font-size="14.00">builder</text>
</g>
<!-- builder&#45;&gt;builder -->
<g id="edge27" class="edge">
<title>builder&#45;&gt;builder</title>
<path fill="none" stroke="black" d="M161.77,-102.94C178.24,-105.14 193.24,-100.83 193.24,-90 193.24,-81.46 183.9,-76.97 171.87,-76.53"/>
<polygon fill="black" stroke="black" points="171.57,-73.05 161.77,-77.06 171.93,-80.04 171.57,-73.05"/>
</g>
<!-- init -->
<g id="node2" class="node">
<title>init</title>
<ellipse fill="none" stroke="black" cx="170.05" cy="-18" rx="27" ry="18"/>
<text text-anchor="middle" x="170.05" y="-14.3" font-family="Times,serif" font-size="14.00">init</text>
</g>
<!-- builder&#45;&gt;init -->
<g id="edge1" class="edge">
<title>builder&#45;&gt;init</title>
<path fill="none" stroke="black" d="M140.49,-72.05C145.15,-63.68 150.88,-53.4 156.04,-44.13"/>
<polygon fill="black" stroke="black" points="159.15,-45.75 160.96,-35.31 153.04,-42.34 159.15,-45.75"/>
</g>
<!-- clinit -->
<g id="node7" class="node">
<title>clinit</title>
<ellipse fill="none" stroke="black" cx="91.05" cy="-18" rx="34.39" ry="18"/>
<text text-anchor="middle" x="91.05" y="-14.3" font-family="Times,serif" font-size="14.00">clinit</text>
</g>
<!-- builder&#45;&gt;clinit -->
<g id="edge9" class="edge">
<title>builder&#45;&gt;clinit</title>
<path fill="none" stroke="black" d="M121.57,-72.41C116.78,-64.04 110.88,-53.71 105.54,-44.37"/>
<polygon fill="black" stroke="black" points="108.46,-42.42 100.46,-35.47 102.38,-45.89 108.46,-42.42"/>
</g>
<!-- copy -->
<g id="node3" class="node">
<title>copy</title>
<ellipse fill="none" stroke="black" cx="670.05" cy="-90" rx="32.49" ry="18"/>
<text text-anchor="middle" x="670.05" y="-86.3" font-family="Times,serif" font-size="14.00">copy</text>
</g>
<!-- copy&#45;&gt;init -->
<g id="edge19" class="edge">
<title>copy&#45;&gt;init</title>
<path fill="none" stroke="black" d="M637.56,-88.9C560.9,-87.91 363.37,-80.81 206.05,-36 204.1,-35.45 202.13,-34.8 200.17,-34.08"/>
<polygon fill="black" stroke="black" points="201.11,-30.69 190.54,-30.09 198.43,-37.15 201.11,-30.69"/>
</g>
<!-- copy&#45;&gt;copy -->
<g id="edge21" class="edge">
<title>copy&#45;&gt;copy</title>
<path fill="none" stroke="black" d="M693.42,-102.66C707.39,-105.47 720.54,-101.25 720.54,-90 720.54,-81.56 713.15,-77.08 703.55,-76.55"/>
<polygon fill="black" stroke="black" points="703.12,-73.08 693.42,-77.34 703.66,-80.05 703.12,-73.08"/>
</g>
<!-- addSuppressed -->
<g id="node4" class="node">
<title>addSuppressed</title>
<ellipse fill="none" stroke="black" cx="670.05" cy="-18" rx="82.59" ry="18"/>
<text text-anchor="middle" x="670.05" y="-14.3" font-family="Times,serif" font-size="14.00">addSuppressed</text>
</g>
<!-- copy&#45;&gt;addSuppressed -->
<g id="edge2" class="edge">
<title>copy&#45;&gt;addSuppressed</title>
<path fill="none" stroke="black" d="M670.05,-71.7C670.05,-63.98 670.05,-54.71 670.05,-46.11"/>
<polygon fill="black" stroke="black" points="673.55,-46.1 670.05,-36.1 666.55,-46.1 673.55,-46.1"/>
</g>
<!-- copy&#45;&gt;clinit -->
<g id="edge4" class="edge">
<title>copy&#45;&gt;clinit</title>
<path fill="none" stroke="black" d="M637.5,-88.9C553.12,-87.99 320.81,-81.22 134.05,-36 131.43,-35.37 128.76,-34.61 126.1,-33.77"/>
<polygon fill="black" stroke="black" points="127.18,-30.44 116.59,-30.44 124.87,-37.05 127.18,-30.44"/>
</g>
<!-- newOutputStream -->
<g id="node8" class="node">
<title>newOutputStream</title>
<ellipse fill="none" stroke="black" cx="867.05" cy="-18" rx="96.68" ry="18"/>
<text text-anchor="middle" x="867.05" y="-14.3" font-family="Times,serif" font-size="14.00">newOutputStream</text>
</g>
<!-- copy&#45;&gt;newOutputStream -->
<g id="edge5" class="edge">
<title>copy&#45;&gt;newOutputStream</title>
<path fill="none" stroke="black" d="M696.61,-79.56C726.69,-68.87 776.45,-51.19 814.46,-37.69"/>
<polygon fill="black" stroke="black" points="816.09,-40.82 824.35,-34.17 813.75,-34.22 816.09,-40.82"/>
</g>
<!-- append -->
<g id="node10" class="node">
<title>append</title>
<ellipse fill="none" stroke="black" cx="1027.05" cy="-18" rx="44.69" ry="18"/>
<text text-anchor="middle" x="1027.05" y="-14.3" font-family="Times,serif" font-size="14.00">append</text>
</g>
<!-- copy&#45;&gt;append -->
<g id="edge7" class="edge">
<title>copy&#45;&gt;append</title>
<path fill="none" stroke="black" d="M701.29,-84.92C756.56,-77.4 874.99,-59.9 973.05,-36 976.65,-35.12 980.36,-34.13 984.07,-33.09"/>
<polygon fill="black" stroke="black" points="985.22,-36.4 993.82,-30.21 983.24,-29.68 985.22,-36.4"/>
</g>
<!-- read -->
<g id="node13" class="node">
<title>read</title>
<ellipse fill="none" stroke="black" cx="1122.05" cy="-18" rx="31.7" ry="18"/>
<text text-anchor="middle" x="1122.05" y="-14.3" font-family="Times,serif" font-size="14.00">read</text>
</g>
<!-- copy&#45;&gt;read -->
<g id="edge11" class="edge">
<title>copy&#45;&gt;read</title>
<path fill="none" stroke="black" d="M702.32,-87.74C772.38,-84.37 943.23,-72.76 1081.05,-36 1083.52,-35.34 1086.05,-34.56 1088.56,-33.71"/>
<polygon fill="black" stroke="black" points="1089.98,-36.92 1098.13,-30.16 1087.54,-30.36 1089.98,-36.92"/>
</g>
<!-- requireNonNull -->
<g id="node14" class="node">
<title>requireNonNull</title>
<ellipse fill="none" stroke="black" cx="1255.05" cy="-18" rx="83.39" ry="18"/>
<text text-anchor="middle" x="1255.05" y="-14.3" font-family="Times,serif" font-size="14.00">requireNonNull</text>
</g>
<!-- copy&#45;&gt;requireNonNull -->
<g id="edge12" class="edge">
<title>copy&#45;&gt;requireNonNull</title>
<path fill="none" stroke="black" d="M702.16,-86.39C780.93,-79.82 989.91,-61.27 1163.05,-36 1170.42,-34.92 1178.11,-33.69 1185.76,-32.38"/>
<polygon fill="black" stroke="black" points="1186.52,-35.8 1195.77,-30.63 1185.31,-28.91 1186.52,-35.8"/>
</g>
<!-- close -->
<g id="node15" class="node">
<title>close</title>
<ellipse fill="none" stroke="black" cx="1391.05" cy="-18" rx="34.39" ry="18"/>
<text text-anchor="middle" x="1391.05" y="-14.3" font-family="Times,serif" font-size="14.00">close</text>
</g>
<!-- copy&#45;&gt;close -->
<g id="edge13" class="edge">
<title>copy&#45;&gt;close</title>
<path fill="none" stroke="black" d="M702.49,-87.71C819.83,-82.84 1221.88,-64.44 1347.05,-36 1349.89,-35.35 1352.8,-34.56 1355.69,-33.67"/>
<polygon fill="black" stroke="black" points="1357.05,-36.9 1365.38,-30.35 1354.78,-30.28 1357.05,-36.9"/>
</g>
<!-- deleteIfExists -->
<g id="node19" class="node">
<title>deleteIfExists</title>
<ellipse fill="none" stroke="black" cx="290.05" cy="-18" rx="75.29" ry="18"/>
<text text-anchor="middle" x="290.05" y="-14.3" font-family="Times,serif" font-size="14.00">deleteIfExists</text>
</g>
<!-- copy&#45;&gt;deleteIfExists -->
<g id="edge17" class="edge">
<title>copy&#45;&gt;deleteIfExists</title>
<path fill="none" stroke="black" d="M639.32,-83.73C585.51,-74.46 470.71,-54.43 374.05,-36 367.91,-34.83 361.52,-33.59 355.14,-32.32"/>
<polygon fill="black" stroke="black" points="355.63,-28.85 345.14,-30.33 354.26,-35.72 355.63,-28.85"/>
</g>
<!-- write -->
<g id="node22" class="node">
<title>write</title>
<ellipse fill="none" stroke="black" cx="418.05" cy="-18" rx="35.19" ry="18"/>
<text text-anchor="middle" x="418.05" y="-14.3" font-family="Times,serif" font-size="14.00">write</text>
</g>
<!-- copy&#45;&gt;write -->
<g id="edge22" class="edge">
<title>copy&#45;&gt;write</title>
<path fill="none" stroke="black" d="M640.11,-82.55C599.41,-73.52 524.52,-55.95 462.05,-36 459.5,-35.19 456.89,-34.31 454.27,-33.39"/>
<polygon fill="black" stroke="black" points="455.45,-30.09 444.86,-29.94 453.05,-36.66 455.45,-30.09"/>
</g>
<!-- toString -->
<g id="node23" class="node">
<title>toString</title>
<ellipse fill="none" stroke="black" cx="520.05" cy="-18" rx="49.29" ry="18"/>
<text text-anchor="middle" x="520.05" y="-14.3" font-family="Times,serif" font-size="14.00">toString</text>
</g>
<!-- copy&#45;&gt;toString -->
<g id="edge23" class="edge">
<title>copy&#45;&gt;toString</title>
<path fill="none" stroke="black" d="M645.95,-77.75C622.39,-66.76 586.14,-49.85 558.58,-36.98"/>
<polygon fill="black" stroke="black" points="559.77,-33.68 549.23,-32.62 556.81,-40.02 559.77,-33.68"/>
</g>
<!-- finishEntry -->
<g id="node5" class="node">
<title>finishEntry</title>
<ellipse fill="none" stroke="black" cx="1144.05" cy="-162" rx="62.29" ry="18"/>
<text text-anchor="middle" x="1144.05" y="-158.3" font-family="Times,serif" font-size="14.00">finishEntry</text>
</g>
<!-- version -->
<g id="node6" class="node">
<title>version</title>
<ellipse fill="none" stroke="black" cx="1470.05" cy="-90" rx="44.69" ry="18"/>
<text text-anchor="middle" x="1470.05" y="-86.3" font-family="Times,serif" font-size="14.00">version</text>
</g>
<!-- finishEntry&#45;&gt;version -->
<g id="edge3" class="edge">
<title>finishEntry&#45;&gt;version</title>
<path fill="none" stroke="black" d="M1190.21,-149.73C1198.47,-147.78 1207.01,-145.8 1215.05,-144 1286.41,-128.04 1369.37,-111.1 1420.8,-100.78"/>
<polygon fill="black" stroke="black" points="1421.53,-104.2 1430.65,-98.81 1420.16,-97.34 1421.53,-104.2"/>
</g>
<!-- get -->
<g id="node21" class="node">
<title>get</title>
<ellipse fill="none" stroke="black" cx="1470.05" cy="-18" rx="27" ry="18"/>
<text text-anchor="middle" x="1470.05" y="-14.3" font-family="Times,serif" font-size="14.00">get</text>
</g>
<!-- version&#45;&gt;get -->
<g id="edge20" class="edge">
<title>version&#45;&gt;get</title>
<path fill="none" stroke="black" d="M1470.05,-71.7C1470.05,-63.98 1470.05,-54.71 1470.05,-46.11"/>
<polygon fill="black" stroke="black" points="1473.55,-46.1 1470.05,-36.1 1466.55,-46.1 1473.55,-46.1"/>
</g>
<!-- getFromHashMap -->
<g id="node9" class="node">
<title>getFromHashMap</title>
<ellipse fill="none" stroke="black" cx="1319.05" cy="-162" rx="94.78" ry="18"/>
<text text-anchor="middle" x="1319.05" y="-158.3" font-family="Times,serif" font-size="14.00">getFromHashMap</text>
</g>
<!-- getFromHashMap&#45;&gt;version -->
<g id="edge6" class="edge">
<title>getFromHashMap&#45;&gt;version</title>
<path fill="none" stroke="black" d="M1353.31,-145.12C1376.82,-134.22 1408.01,-119.76 1432.24,-108.52"/>
<polygon fill="black" stroke="black" points="1433.89,-111.62 1441.49,-104.24 1430.95,-105.27 1433.89,-111.62"/>
</g>
<!-- copyMethod -->
<g id="node11" class="node">
<title>copyMethod</title>
<ellipse fill="none" stroke="black" cx="779.05" cy="-162" rx="67.69" ry="18"/>
<text text-anchor="middle" x="779.05" y="-158.3" font-family="Times,serif" font-size="14.00">copyMethod</text>
</g>
<!-- copyMethod&#45;&gt;copy -->
<g id="edge8" class="edge">
<title>copyMethod&#45;&gt;copy</title>
<path fill="none" stroke="black" d="M754.31,-145.12C737.94,-134.6 716.41,-120.78 699.21,-109.73"/>
<polygon fill="black" stroke="black" points="700.96,-106.7 690.66,-104.24 697.18,-112.59 700.96,-106.7"/>
</g>
<!-- run -->
<g id="node12" class="node">
<title>run</title>
<ellipse fill="none" stroke="black" cx="892.05" cy="-162" rx="27" ry="18"/>
<text text-anchor="middle" x="892.05" y="-158.3" font-family="Times,serif" font-size="14.00">run</text>
</g>
<!-- run&#45;&gt;copy -->
<g id="edge10" class="edge">
<title>run&#45;&gt;copy</title>
<path fill="none" stroke="black" d="M870.97,-150.35C866.13,-148.1 860.96,-145.85 856.05,-144 806.63,-125.43 747.76,-109.68 709.68,-100.29"/>
<polygon fill="black" stroke="black" points="710.06,-96.78 699.52,-97.81 708.41,-103.58 710.06,-96.78"/>
</g>
<!-- isLive -->
<g id="node16" class="node">
<title>isLive</title>
<ellipse fill="none" stroke="black" cx="1470.05" cy="-162" rx="38.19" ry="18"/>
<text text-anchor="middle" x="1470.05" y="-158.3" font-family="Times,serif" font-size="14.00">isLive</text>
</g>
<!-- isLive&#45;&gt;version -->
<g id="edge14" class="edge">
<title>isLive&#45;&gt;version</title>
<path fill="none" stroke="black" d="M1470.05,-143.7C1470.05,-135.98 1470.05,-126.71 1470.05,-118.11"/>
<polygon fill="black" stroke="black" points="1473.55,-118.1 1470.05,-108.1 1466.55,-118.1 1473.55,-118.1"/>
</g>
<!-- truncate -->
<g id="node17" class="node">
<title>truncate</title>
<ellipse fill="none" stroke="black" cx="50.05" cy="-162" rx="50.09" ry="18"/>
<text text-anchor="middle" x="50.05" y="-158.3" font-family="Times,serif" font-size="14.00">truncate</text>
</g>
<!-- truncate&#45;&gt;builder -->
<g id="edge15" class="edge">
<title>truncate&#45;&gt;builder</title>
<path fill="none" stroke="black" d="M68.43,-145.12C79.27,-135.74 93.17,-123.73 105.12,-113.41"/>
<polygon fill="black" stroke="black" points="107.74,-115.77 113.02,-106.58 103.16,-110.47 107.74,-115.77"/>
</g>
<!-- copyField -->
<g id="node18" class="node">
<title>copyField</title>
<ellipse fill="none" stroke="black" cx="444.05" cy="-162" rx="55.79" ry="18"/>
<text text-anchor="middle" x="444.05" y="-158.3" font-family="Times,serif" font-size="14.00">copyField</text>
</g>
<!-- copyField&#45;&gt;copy -->
<g id="edge16" class="edge">
<title>copyField&#45;&gt;copy</title>
<path fill="none" stroke="black" d="M482.9,-148.97C524.87,-135.97 591.28,-115.4 632.67,-102.58"/>
<polygon fill="black" stroke="black" points="633.85,-105.87 642.37,-99.57 631.78,-99.19 633.85,-105.87"/>
</g>
<!-- makeNodeBuilder -->
<g id="node20" class="node">
<title>makeNodeBuilder</title>
<ellipse fill="none" stroke="black" cx="212.05" cy="-162" rx="94.48" ry="18"/>
<text text-anchor="middle" x="212.05" y="-158.3" font-family="Times,serif" font-size="14.00">makeNodeBuilder</text>
</g>
<!-- makeNodeBuilder&#45;&gt;builder -->
<g id="edge18" class="edge">
<title>makeNodeBuilder&#45;&gt;builder</title>
<path fill="none" stroke="black" d="M192.44,-144.05C181.71,-134.78 168.29,-123.19 156.73,-113.2"/>
<polygon fill="black" stroke="black" points="158.94,-110.48 149.09,-106.59 154.37,-115.78 158.94,-110.48"/>
</g>
<!-- startEntry -->
<g id="node24" class="node">
<title>startEntry</title>
<ellipse fill="none" stroke="black" cx="1586.05" cy="-162" rx="59.59" ry="18"/>
<text text-anchor="middle" x="1586.05" y="-158.3" font-family="Times,serif" font-size="14.00">startEntry</text>
</g>
<!-- startEntry&#45;&gt;version -->
<g id="edge24" class="edge">
<title>startEntry&#45;&gt;version</title>
<path fill="none" stroke="black" d="M1560.59,-145.64C1543.51,-135.33 1520.86,-121.67 1502.49,-110.58"/>
<polygon fill="black" stroke="black" points="1504.23,-107.54 1493.86,-105.37 1500.61,-113.53 1504.23,-107.54"/>
</g>
<!-- copyConstructor -->
<g id="node25" class="node">
<title>copyConstructor</title>
<ellipse fill="none" stroke="black" cx="606.05" cy="-162" rx="87.99" ry="18"/>
<text text-anchor="middle" x="606.05" y="-158.3" font-family="Times,serif" font-size="14.00">copyConstructor</text>
</g>
<!-- copyConstructor&#45;&gt;copy -->
<g id="edge25" class="edge">
<title>copyConstructor&#45;&gt;copy</title>
<path fill="none" stroke="black" d="M621.54,-144.05C629.83,-134.99 640.15,-123.69 649.15,-113.86"/>
<polygon fill="black" stroke="black" points="651.84,-116.1 656.01,-106.36 646.67,-111.37 651.84,-116.1"/>
</g>
<!-- classValueOrNull -->
<g id="node26" class="node">
<title>classValueOrNull</title>
<ellipse fill="none" stroke="black" cx="1754.05" cy="-162" rx="90.18" ry="18"/>
<text text-anchor="middle" x="1754.05" y="-158.3" font-family="Times,serif" font-size="14.00">classValueOrNull</text>
</g>
<!-- classValueOrNull&#45;&gt;version -->
<g id="edge26" class="edge">
<title>classValueOrNull&#45;&gt;version</title>
<path fill="none" stroke="black" d="M1699.62,-147.59C1646.88,-134.59 1567.7,-115.07 1517.47,-102.69"/>
<polygon fill="black" stroke="black" points="1518.07,-99.23 1507.52,-100.24 1516.39,-106.03 1518.07,-99.23"/>
</g>
</g>
</svg>
